<svg width="40" height="38" viewBox="0 0 40 38" fill="none" xmlns="http://www.w3.org/2000/svg">
<path d="M11.6667 14.2499V11.0833H35V14.2499H11.6667ZM11.6667 20.5833V17.4166H35V20.5833H11.6667ZM11.6667 26.9166V23.7499H35V26.9166H11.6667ZM6.66667 14.2499C6.19444 14.2499 5.79861 14.0982 5.47917 13.7947C5.15972 13.4912 5 13.1152 5 12.6666C5 12.218 5.15972 11.8419 5.47917 11.5385C5.79861 11.235 6.19444 11.0833 6.66667 11.0833C7.13889 11.0833 7.53472 11.235 7.85417 11.5385C8.17361 11.8419 8.33333 12.218 8.33333 12.6666C8.33333 13.1152 8.17361 13.4912 7.85417 13.7947C7.53472 14.0982 7.13889 14.2499 6.66667 14.2499ZM6.66667 20.5833C6.19444 20.5833 5.79861 20.4315 5.47917 20.128C5.15972 19.8246 5 19.4485 5 18.9999C5 18.5513 5.15972 18.1753 5.47917 17.8718C5.79861 17.5683 6.19444 17.4166 6.66667 17.4166C7.13889 17.4166 7.53472 17.5683 7.85417 17.8718C8.17361 18.1753 8.33333 18.5513 8.33333 18.9999C8.33333 19.4485 8.17361 19.8246 7.85417 20.128C7.53472 20.4315 7.13889 20.5833 6.66667 20.5833ZM6.66667 26.9166C6.19444 26.9166 5.79861 26.7648 5.47917 26.4614C5.15972 26.1579 5 25.7819 5 25.3333C5 24.8846 5.15972 24.5086 5.47917 24.2051C5.79861 23.9017 6.19444 23.7499 6.66667 23.7499C7.13889 23.7499 7.53472 23.9017 7.85417 24.2051C8.17361 24.5086 8.33333 24.8846 8.33333 25.3333C8.33333 25.7819 8.17361 26.1579 7.85417 26.4614C7.53472 26.7648 7.13889 26.9166 6.66667 26.9166Z" fill="#1D1B20"/>
</svg>
