<svg width="22" height="20" viewBox="0 0 22 20" fill="none" xmlns="http://www.w3.org/2000/svg">
<path d="M4.49729 15.602C4.59223 15.5969 4.68721 15.6113 4.77644 15.6441C4.86566 15.6769 4.94727 15.7276 5.01627 15.793C5.08527 15.8584 5.14022 15.9372 5.17777 16.0245C5.21533 16.1119 5.2347 16.2059 5.2347 16.301C5.2347 16.3961 5.21533 16.4902 5.17777 16.5775C5.14022 16.6649 5.08527 16.7436 5.01627 16.8091C4.94727 16.8745 4.86566 16.9251 4.77644 16.958C4.68721 16.9908 4.59223 17.0051 4.49729 17H1.70029C1.60535 17.0051 1.51038 16.9908 1.42115 16.958C1.33192 16.9251 1.25032 16.8745 1.18132 16.8091C1.11232 16.7436 1.05737 16.6649 1.01981 16.5775C0.982258 16.4902 0.962891 16.3961 0.962891 16.301C0.962891 16.2059 0.982258 16.1119 1.01981 16.0245C1.05737 15.9372 1.11232 15.8584 1.18132 15.793C1.25032 15.7276 1.33192 15.6769 1.42115 15.6441C1.51038 15.6113 1.60535 15.5969 1.70029 15.602H4.49729ZM20.3003 15.602C20.3952 15.5969 20.4902 15.6113 20.5794 15.6441C20.6687 15.6769 20.7503 15.7276 20.8193 15.793C20.8883 15.8584 20.9432 15.9372 20.9808 16.0245C21.0183 16.1119 21.0377 16.2059 21.0377 16.301C21.0377 16.3961 21.0183 16.4902 20.9808 16.5775C20.9432 16.6649 20.8883 16.7436 20.8193 16.8091C20.7503 16.8745 20.6687 16.9251 20.5794 16.958C20.4902 16.9908 20.3952 17.0051 20.3003 17H6.52929C6.43435 17.0051 6.33938 16.9908 6.25015 16.958C6.16092 16.9251 6.07932 16.8745 6.01032 16.8091C5.94132 16.7436 5.88637 16.6649 5.84881 16.5775C5.81126 16.4902 5.79189 16.3961 5.79189 16.301C5.79189 16.2059 5.81126 16.1119 5.84881 16.0245C5.88637 15.9372 5.94132 15.8584 6.01032 15.793C6.07932 15.7276 6.16092 15.6769 6.25015 15.6441C6.33938 15.6113 6.43435 15.5969 6.52929 15.602H20.3003ZM4.49729 9.33402C4.59138 9.33047 4.68521 9.34592 4.77319 9.37947C4.86116 9.41302 4.94146 9.46398 5.00928 9.52928C5.0771 9.59459 5.13105 9.6729 5.1679 9.75955C5.20475 9.84619 5.22375 9.93937 5.22375 10.0335C5.22375 10.1277 5.20475 10.2209 5.1679 10.3075C5.13105 10.3941 5.0771 10.4725 5.00928 10.5378C4.94146 10.6031 4.86116 10.654 4.77319 10.6876C4.68521 10.7211 4.59138 10.7366 4.49729 10.733H1.70029C1.60621 10.7366 1.51237 10.7211 1.4244 10.6876C1.33643 10.654 1.25613 10.6031 1.18831 10.5378C1.12049 10.4725 1.06654 10.3941 1.02969 10.3075C0.992835 10.2209 0.973841 10.1277 0.973841 10.0335C0.973841 9.93937 0.992835 9.84619 1.02969 9.75955C1.06654 9.6729 1.12049 9.59459 1.18831 9.52928C1.25613 9.46398 1.33643 9.41302 1.4244 9.37947C1.51237 9.34592 1.60621 9.33047 1.70029 9.33402H4.49729ZM20.3003 9.33402C20.3944 9.33047 20.4882 9.34592 20.5762 9.37947C20.6642 9.41302 20.7445 9.46398 20.8123 9.52928C20.8801 9.59459 20.9341 9.6729 20.9709 9.75955C21.0078 9.84619 21.0267 9.93937 21.0267 10.0335C21.0267 10.1277 21.0078 10.2209 20.9709 10.3075C20.9341 10.3941 20.8801 10.4725 20.8123 10.5378C20.7445 10.6031 20.6642 10.654 20.5762 10.6876C20.4882 10.7211 20.3944 10.7366 20.3003 10.733H6.52829C6.43421 10.7366 6.34037 10.7211 6.2524 10.6876C6.16443 10.654 6.08413 10.6031 6.01631 10.5378C5.94849 10.4725 5.89454 10.3941 5.85769 10.3075C5.82083 10.2209 5.80184 10.1277 5.80184 10.0335C5.80184 9.93937 5.82083 9.84619 5.85769 9.75955C5.89454 9.6729 5.94849 9.59459 6.01631 9.52928C6.08413 9.46398 6.16443 9.41302 6.2524 9.37947C6.34037 9.34592 6.43421 9.33047 6.52829 9.33402H20.3003ZM4.49729 3.00002C4.59223 2.99494 4.68721 3.00926 4.77644 3.04209C4.86566 3.07492 4.94727 3.12559 5.01627 3.191C5.08527 3.2564 5.14022 3.33518 5.17777 3.42253C5.21533 3.50987 5.2347 3.60395 5.2347 3.69902C5.2347 3.7941 5.21533 3.88818 5.17777 3.97552C5.14022 4.06286 5.08527 4.14164 5.01627 4.20705C4.94727 4.27246 4.86566 4.32312 4.77644 4.35596C4.68721 4.38879 4.59223 4.4031 4.49729 4.39802H1.70029C1.60535 4.4031 1.51038 4.38879 1.42115 4.35596C1.33192 4.32312 1.25032 4.27246 1.18132 4.20705C1.11232 4.14164 1.05737 4.06286 1.01981 3.97552C0.982258 3.88818 0.962891 3.7941 0.962891 3.69902C0.962891 3.60395 0.982258 3.50987 1.01981 3.42253C1.05737 3.33518 1.11232 3.2564 1.18132 3.191C1.25032 3.12559 1.33192 3.07492 1.42115 3.04209C1.51038 3.00926 1.60535 2.99494 1.70029 3.00002H4.49729ZM20.3003 3.00002C20.3952 2.99494 20.4902 3.00926 20.5794 3.04209C20.6687 3.07492 20.7503 3.12559 20.8193 3.191C20.8883 3.2564 20.9432 3.33518 20.9808 3.42253C21.0183 3.50987 21.0377 3.60395 21.0377 3.69902C21.0377 3.7941 21.0183 3.88818 20.9808 3.97552C20.9432 4.06286 20.8883 4.14164 20.8193 4.20705C20.7503 4.27246 20.6687 4.32312 20.5794 4.35596C20.4902 4.38879 20.3952 4.4031 20.3003 4.39802H6.52829C6.43335 4.4031 6.33838 4.38879 6.24915 4.35596C6.15992 4.32312 6.07832 4.27246 6.00932 4.20705C5.94032 4.14164 5.88537 4.06286 5.84781 3.97552C5.81026 3.88818 5.79089 3.7941 5.79089 3.69902C5.79089 3.60395 5.81026 3.50987 5.84781 3.42253C5.88537 3.33518 5.94032 3.2564 6.00932 3.191C6.07832 3.12559 6.15992 3.07492 6.24915 3.04209C6.33838 3.00926 6.43335 2.99494 6.52829 3.00002H20.3003Z" fill="black"/>
</svg>
