<svg width="76" height="51" viewBox="0 0 76 51" fill="none" xmlns="http://www.w3.org/2000/svg">
<rect width="76" height="51" rx="3" fill="#FEFEFF"/>
<path d="M52 25.5C52 17.4919 45.5081 11 37.5 11C29.4919 11 23 17.4919 23 25.5C23 32.7373 28.3025 38.7361 35.2344 39.8239V29.6914H31.5527V25.5H35.2344V22.3055C35.2344 18.6714 37.3992 16.6641 40.7113 16.6641C42.2977 16.6641 43.957 16.9473 43.957 16.9473V20.5156H42.1287C40.3274 20.5156 39.7656 21.6334 39.7656 22.7801V25.5H43.7871L43.1442 29.6914H39.7656V39.8239C46.6975 38.7361 52 32.7374 52 25.5Z" fill="#1877F2"/>
<path d="M43.1442 29.6914L43.7871 25.5H39.7656V22.7801C39.7656 21.6333 40.3274 20.5156 42.1287 20.5156H43.957V16.9473C43.957 16.9473 42.2977 16.6641 40.7112 16.6641C37.3992 16.6641 35.2344 18.6714 35.2344 22.3055V25.5H31.5527V29.6914H35.2344V39.8238C35.9839 39.9413 36.7414 40.0002 37.5 40C38.2586 40.0002 39.0161 39.9413 39.7656 39.8238V29.6914H43.1442Z" fill="white"/>
</svg>
