<svg width="76" height="51" viewBox="0 0 76 51" fill="none" xmlns="http://www.w3.org/2000/svg">
<rect width="76" height="51" rx="3" fill="#FEFEFF"/>
<path d="M50.9867 26.262C50.9867 25.1149 50.8949 24.2778 50.6961 23.4097H37.7686V28.5873H45.3567C45.2038 29.874 44.3776 31.8118 42.5418 33.1139L42.516 33.2873L46.6035 36.4958L46.8866 36.5245C49.4874 34.0906 50.9867 30.5096 50.9867 26.262Z" fill="#4285F4"/>
<path d="M37.769 39.9037C41.4866 39.9037 44.6075 38.6635 46.8871 36.5243L42.5422 33.1137C41.3795 33.9353 39.819 34.5089 37.769 34.5089C34.1279 34.5089 31.0376 32.0751 29.936 28.7112L29.7745 28.7251L25.5243 32.058L25.4688 32.2146C27.733 36.7722 32.3838 39.9037 37.769 39.9037Z" fill="#34A853"/>
<path d="M29.9359 28.7113C29.6452 27.8432 29.477 26.913 29.477 25.9519C29.477 24.9907 29.6452 24.0606 29.9206 23.1925L29.9129 23.0076L25.6095 19.6211L25.4687 19.689C24.5355 21.5802 24 23.7041 24 25.9519C24 28.1997 24.5355 30.3234 25.4687 32.2147L29.9359 28.7113Z" fill="#FBBC05"/>
<path d="M37.769 17.3947C40.3545 17.3947 42.0985 18.5264 43.093 19.472L46.9789 15.6275C44.5923 13.3797 41.4866 12 37.769 12C32.3838 12 27.733 15.1314 25.4688 19.689L29.9207 23.1925C31.0376 19.8286 34.1279 17.3947 37.769 17.3947Z" fill="#EB4335"/>
</svg>
