<svg width="76" height="51" viewBox="0 0 76 51" fill="none" xmlns="http://www.w3.org/2000/svg">
<rect width="76" height="51" rx="2" fill="#FFFCFC"/>
<path d="M44.4375 12H29.5625C25.9381 12 23 14.9381 23 18.5625V33.4375C23 37.0619 25.9381 40 29.5625 40H44.4375C48.0619 40 51 37.0619 51 33.4375V18.5625C51 14.9381 48.0619 12 44.4375 12Z" fill="white"/>
<path d="M44.4375 12H29.5625C25.9381 12 23 14.9381 23 18.5625V33.4375C23 37.0619 25.9381 40 29.5625 40H44.4375C48.0619 40 51 37.0619 51 33.4375V18.5625C51 14.9381 48.0619 12 44.4375 12Z" fill="#0A66C2"/>
<path d="M43.2032 35.8093H46.4046C46.5206 35.8093 46.6319 35.7632 46.7139 35.6812C46.796 35.5992 46.8421 35.4879 46.8421 35.3719L46.8438 28.6079C46.8438 25.0726 46.082 22.3552 41.9505 22.3552C40.38 22.2968 38.899 23.1064 38.0998 24.4583C38.0959 24.4648 38.0899 24.4699 38.0828 24.4728C38.0757 24.4757 38.0679 24.4761 38.0605 24.4741C38.0532 24.4721 38.0466 24.4678 38.042 24.4617C38.0373 24.4557 38.0348 24.4483 38.0347 24.4406V23.1191C38.0347 23.003 37.9886 22.8918 37.9065 22.8097C37.8245 22.7277 37.7132 22.6816 37.5972 22.6816H34.5591C34.443 22.6816 34.3318 22.7277 34.2497 22.8097C34.1677 22.8918 34.1216 23.003 34.1216 23.1191V35.3713C34.1216 35.4873 34.1677 35.5986 34.2497 35.6806C34.3318 35.7627 34.443 35.8088 34.5591 35.8088H37.7603C37.8763 35.8088 37.9876 35.7627 38.0696 35.6806C38.1517 35.5986 38.1978 35.4873 38.1978 35.3713V29.3148C38.1978 27.6023 38.5226 25.9439 40.6457 25.9439C42.7386 25.9439 42.7657 27.9035 42.7657 29.4257V35.3718C42.7657 35.4878 42.8118 35.5991 42.8938 35.6812C42.9759 35.7632 43.0872 35.8093 43.2032 35.8093ZM27.1562 18.5218C27.1562 19.8194 28.2245 20.8872 29.5222 20.8872C30.8197 20.887 31.8873 19.8187 31.8873 18.5213C31.887 17.2239 30.8193 16.1562 29.5218 16.1562C28.224 16.1562 27.1562 17.2242 27.1562 18.5218ZM27.9174 35.8093H31.1228C31.2389 35.8093 31.3502 35.7632 31.4322 35.6812C31.5143 35.5991 31.5603 35.4878 31.5603 35.3718V23.1191C31.5603 23.003 31.5143 22.8918 31.4322 22.8097C31.3502 22.7277 31.2389 22.6816 31.1228 22.6816H27.9174C27.8014 22.6816 27.6901 22.7277 27.608 22.8097C27.526 22.8918 27.4799 23.003 27.4799 23.1191V35.3718C27.4799 35.4878 27.526 35.5991 27.608 35.6812C27.6901 35.7632 27.8014 35.8093 27.9174 35.8093Z" fill="white"/>
</svg>
